#!OML:ASF F:\VICON\USERDATA\INSTALL\rory3\rory3.ASF
:FULLY-SPECIFIED
:DEGREES
109
root 0.6887466428071871 17.961709097063157 22.067432737185143 4.219949737778889 -4.8085099301961876 -2.663565558224812
lfemur -5.356723773278723 1.547767428763343 -21.491652179152233
ltibia 40.368267315073815
lfoot 9.551377823231523 -11.222568254538322
ltoes -12.515690886799469
rfemur -24.333375301910575 3.503039759427721 27.749878750976272
rtibia 91.23573244843742
rfoot 4.404374587144481 -5.281241859401911
rtoes 2.050381973758571
lowerback 13.287068716842938 1.2560092180586806 1.4346467346010414
upperback -1.196096965922503 1.9253038041659312 0.7040354534030145
thorax -8.717265922534821 1.0111924951330122 -0.22283362810481483
lowerneck -19.128805052443433 -4.169920632550444 -2.390437382337817
upperneck 7.659101746099021 -5.908992521991035 6.103551955629806
head 5.924782578436291 -2.3348598519717636 1.6878326329157147
lclavicle -1.3367475555204689e-15 -2.7589793148604523e-15
lhumerus -47.06070117143892 -8.760076842267955 92.02925885152192
lradius 108.16846252036119
lwrist 32.167969401794316
lhand -22.933931290854563 3.963706890770352
lfingers 7.12502
lthumb 3.43295400771034 33.25743890335184
rclavicle -1.33674755546959e-15 -2.7589793148246467e-15
rhumerus -47.90583666091374 12.08311724026837 -94.9244408742413
rradius 110.90226140399501
rwrist -23.399152436535207
rhand -18.649496950234713 41.5168291320792
rfingers 7.12502
rthumb 6.746413466916991 11.373163704623934
110
root 0.6837250729367484 17.993342487137483 22.31382941601505 4.284391376991786 -5.045312217926513 -2.7991319014472875
lfemur -4.717071123424111 1.2447401892265564 -21.232246050977643
ltibia 41.209551429464696
lfoot 9.448624503067 -11.506386539862332
ltoes -15.520085807512324
rfemur -25.040104843358808 3.640357770819796 27.949459500404174
rtibia 90.1490459404331
rfoot 4.838290768040361 -5.539411396310431
rtoes 3.0622225736707294
lowerback 13.27817601320293 1.2768545419674169 1.562068943351755
upperback -1.2722091649653 1.9999204401800146 0.8053663704569217
thorax -8.740718724523326 1.0496420801994342 -0.2151696022945634
lowerneck -18.82814458793596 -4.156373594212132 -2.3830880095402764
upperneck 7.872107345007466 -5.878200011464266 6.019751298580882
head 6.005116511046209 -2.333815811778288 1.6619866576874824
lclavicle -1.336747555523252e-15 -2.7589793148624217e-15
lhumerus -47.16194925050552 -8.810806853793276 91.89088345895078
lradius 108.1802470197038
lwrist 32.22770340272441
lhand -22.79872343034849 3.9464508747441203
lfingers 7.12502
lthumb 3.648469281279924 33.301655829092475
rclavicle -1.3367475554673665e-15 -2.758979314822692e-15
rhumerus -48.163615457205154 12.05329153677119 -94.89787390771941
rradius 110.98777827369138
rwrist -23.53366200705288
rhand -18.740162182402045 42.020698441378684
rfingers 7.12502
rthumb 6.547126117968257 11.905704207562236
111
root 0.7064335135423245 18.028341811610495 22.788142757163904 4.285458774981183 -5.088007284212721 -2.8313645849331053
lfemur -4.07871616888159 0.8205069321540523 -21.134562461272886
ltibia 41.98102299356264
lfoot 9.34890578602247 -11.745418183010802
ltoes -19.06702914101018
rfemur -25.434309011990567 3.494120189119467 28.059897834739335
rtibia 88.9468073023351
rfoot 5.172445030107954 -5.538126055692692
rtoes 2.3417986335583447
lowerback 13.168671487464984 1.249749907640544 1.709504979131277
upperback -1.3091141444300662 1.9584749779836872 0.8167797757860872
thorax -8.521274823603118 1.0241583817881248 -0.2827168730690985
lowerneck -18.659652487856086 -4.176799321802621 -2.375750434180298
upperneck 8.110517151117596 -5.909726405793177 5.948736389232405
head 6.0969523657452545 -2.361038220503088 1.638623045870741
lclavicle -1.3367475555189586e-15 -2.7589793148588383e-15
lhumerus -47.24277343439765 -8.761014364551508 91.81522636519063
lradius 108.19075062715176
lwrist 32.28780555959827
lhand -22.58362691331596 3.901441051862486
lfingers 7.12502
lthumb 3.659698473723161 33.25951009414421
rclavicle -1.336747555465413e-15 -2.7589793148209765e-15
rhumerus -48.406350515426105 12.047933841743314 -94.90299133734482
rradius 111.0690831029025
rwrist -23.532614682068445
rhand -18.8397154374851 42.4451683423562
rfingers 7.12502
rthumb 6.3833714972819235 12.296931661962194
112
root 0.7046612680948436 18.031342665317474 22.98305904454771 4.283475669107901 -5.255678427410865 -2.8908241579331744
lfemur -3.6404207999996867 0.541076753511289 -20.982964517187042
ltibia 42.773310879501345
lfoot 9.008041743454783 -11.711037910751422
ltoes -21.652465722506363
rfemur -25.92415950338762 3.5406941420956324 28.17871275172999
rtibia 87.8763638849538
rfoot 5.2816654267619425 -5.768980540227223
rtoes 1.68376356857169
lowerback 13.17013896239395 1.2701170272332196 1.764326273094722
upperback -1.3483003412747232 2.0110920912079724 0.8872735631726748
thorax -8.443895430196559 1.0604485728436273 -0.2645657855109301
lowerneck -18.451815890051254 -4.2075600735747605 -2.365817115779093
upperneck 8.330404346820558 -5.9573747128716965 5.883093239762991
head 6.182134205582982 -2.3987074820075827 1.614538502852764
lclavicle -1.3367475555203454e-15 -2.758979314859927e-15
lhumerus -47.2974560068821 -8.723296471338541 91.73834999416925
lradius 108.19890251488562
lwrist 32.30391112898655
lhand -22.346813124351037 3.5067014249599993
lfingers 7.12502
lthumb 4.017790140495843 33.10647699157541
rclavicle -1.3367475554645938e-15 -2.758979314820344e-15
rhumerus -48.6164116009113 12.049654903818187 -94.92106245994152
rradius 111.10053080978487
rwrist -23.608201450282372
rhand -18.885296611781342 42.87530946912257
rfingers 7.12502
rthumb 6.327880764657834 12.805325575446664
113
root 0.697399646648402 18.033312355759747 23.198453929585305 4.271286094631922 -5.415664589469085 -2.9391835305890988
lfemur -3.3473911589619565 0.3119807724472561 -20.849580620050098
ltibia 43.552837160864954
lfoot 9.075982096430817 -11.176485767774704
ltoes -23.013540831619853
rfemur -26.39216573743817 3.6101499654921985 28.303038650995262
rtibia 86.77378759357671
rfoot 5.165060708051074 -6.205684970183653
rtoes 0.6396184267530849
lowerback 13.184027441741929 1.2917834900188105 1.8058942939505787
upperback -1.3757680581460323 2.057202745103468 0.9845235710155417
thorax -8.405770265548027 1.0845554707711744 -0.24395684245947408
lowerneck -18.279013646424566 -4.250501297287874 -2.369743174703684
upperneck 8.549530004058173 -6.016587732560322 5.824845725168059
head 6.287138050098837 -2.4339755185859615 1.5917370809208355
lclavicle -1.3367475555249776e-15 -2.7589793148633368e-15
lhumerus -47.283436408294016 -8.709794052648089 91.67849259575974
lradius 108.1931770169002
lwrist 32.27646985274175
lhand -22.313363339269994 3.378693738682146
lfingers 7.12502
lthumb 4.272036056742751 33.12315246492551
rclavicle -1.3367475554638592e-15 -2.758979314819503e-15
rhumerus -48.754015635738384 12.132059127277172 -94.92168643843388
rradius 111.1361051405621
rwrist -23.665522526773653
rhand -18.98041336342501 43.074408841186646
rfingers 7.12502
rthumb 6.264722889027433 13.21271084860333
114
root 0.6976935020861836 18.05315125550432 23.35438687671759 4.258019419429324 -5.528413612325469 -2.9931411066485816
lfemur -3.1198189622531807 0.06661912528791447 -20.680666199039525
ltibia 44.52077689721822
lfoot 9.108324371674275 -10.658211971730777
ltoes -24.056163473905325
rfemur -26.571839330401325 3.6163983365438215 28.487340730559044
rtibia 85.53618047395517
rfoot 4.9371896912655036 -6.61438027881524
rtoes -0.9595765099087945
lowerback 13.182500157824977 1.3071207938208316 1.8886574910527636
upperback -1.3660035309572074 2.0923805131601076 1.0552514531114006
thorax -8.265167927058007 1.1028804815416133 -0.25023802890426133
lowerneck -18.251454394062335 -4.339996926840153 -2.4191088456627634
upperneck 8.831167464910104 -6.153085929956437 5.821106826753411
head 6.3817575518452845 -2.5100738442633204 1.5821883427277885
lclavicle -1.3367475555296762e-15 -2.758979314866583e-15
lhumerus -47.1933355310307 -8.719649862216182 91.60347011755688
lradius 108.19610828872247
lwrist 32.23865913565333
lhand -22.27659859488105 3.2428928815981473
lfingers 7.12502
lthumb 4.384387547790418 33.13414681105622
rclavicle -1.3367475554654464e-15 -2.7589793148202843e-15
rhumerus -48.95344175989945 12.164906025609948 -94.97587470122431
rradius 111.24269223812772
rwrist -23.751812432319102
rhand -19.057136788555226 43.05973470847828
rfingers 7.12502
rthumb 6.248344593024244 13.41632975425103
115
root 0.6998140169483862 18.05568182872053 23.57233277898872 4.19518539239906 -5.625310271612654 -2.98198743648406
lfemur -2.978806360525896 -0.12955212231798574 -20.611796383332205
ltibia 45.6444077453343
lfoot 8.944971515315842 -10.554157937793418
ltoes -25.210893278090484
rfemur -26.623639120062325 3.5537300985446723 28.56891056243121
rtibia 84.3645614506646
rfoot 4.975847727326885 -6.968884084086147
rtoes -0.9735074124877725
lowerback 13.175738120710136 1.330004643211442 1.9230854221208007
upperback -1.3214531880317923 2.122427852094092 1.049967554335871
thorax -7.9811953309581956 1.135256847178639 -0.24030696812244268
lowerneck -18.254887723628674 -4.401512611716496 -2.432315403138937
upperneck 9.053692943314648 -6.252406857246324 5.808915745438162
head 6.508948043957229 -2.5575827444168597 1.573436666862373
lclavicle -1.336747555527078e-15 -2.7589793148643923e-15
lhumerus -46.892524311987486 -8.877873223063578 91.47842392358652
lradius 108.12153309367616
lwrist 32.05234170256216
lhand -22.025001278025698 3.3378252717751242
lfingers 7.12502
lthumb 4.564546436700317 33.08423262412499
rclavicle -1.3367475554628157e-15 -2.7589793148180357e-15
rhumerus -49.050490370083324 12.194802397012612 -95.00377241556481
rradius 111.37376635583891
rwrist -23.747458450603716
rhand -19.13805831423922 42.98416607658083
rfingers 7.12502
rthumb 6.282314778398888 13.521291550942069
